<mxfile host="app.diagrams.net" modified="2024-06-06T18:22:37.559Z" agent="Mozilla/5.0 (Windows NT 10.0; Win64; x64) AppleWebKit/537.36 (KHTML, like Gecko) Chrome/125.0.0.0 Safari/537.36" etag="8DHPS-9TczXaCB-VllLM" version="24.4.15" type="device">
  <diagram id="C5RBs43oDa-KdzZeNtuy" name="Page-1">
    <mxGraphModel dx="1247" dy="642" grid="1" gridSize="10" guides="1" tooltips="1" connect="1" arrows="1" fold="1" page="1" pageScale="1" pageWidth="1200" pageHeight="1600" math="0" shadow="0">
      <root>
        <mxCell id="WIyWlLk6GJQsqaUBKTNV-0" />
        <mxCell id="WIyWlLk6GJQsqaUBKTNV-1" parent="WIyWlLk6GJQsqaUBKTNV-0" />
        <mxCell id="zkfFHV4jXpPFQw0GAbJ--0" value="Alojamiento" style="swimlane;fontStyle=2;align=center;verticalAlign=top;childLayout=stackLayout;horizontal=1;startSize=26;horizontalStack=0;resizeParent=1;resizeLast=0;collapsible=1;marginBottom=0;rounded=0;shadow=0;strokeWidth=1;" parent="WIyWlLk6GJQsqaUBKTNV-1" vertex="1">
          <mxGeometry x="340" y="680" width="290" height="474" as="geometry">
            <mxRectangle x="230" y="140" width="160" height="26" as="alternateBounds" />
          </mxGeometry>
        </mxCell>
        <mxCell id="zkfFHV4jXpPFQw0GAbJ--1" value="-id: Long" style="text;align=left;verticalAlign=top;spacingLeft=4;spacingRight=4;overflow=hidden;rotatable=0;points=[[0,0.5],[1,0.5]];portConstraint=eastwest;" parent="zkfFHV4jXpPFQw0GAbJ--0" vertex="1">
          <mxGeometry y="26" width="290" height="26" as="geometry" />
        </mxCell>
        <mxCell id="zkfFHV4jXpPFQw0GAbJ--2" value="-txtNombre: String" style="text;align=left;verticalAlign=top;spacingLeft=4;spacingRight=4;overflow=hidden;rotatable=0;points=[[0,0.5],[1,0.5]];portConstraint=eastwest;rounded=0;shadow=0;html=0;" parent="zkfFHV4jXpPFQw0GAbJ--0" vertex="1">
          <mxGeometry y="52" width="290" height="26" as="geometry" />
        </mxCell>
        <mxCell id="zkfFHV4jXpPFQw0GAbJ--3" value="-txtDescripcion: String" style="text;align=left;verticalAlign=top;spacingLeft=4;spacingRight=4;overflow=hidden;rotatable=0;points=[[0,0.5],[1,0.5]];portConstraint=eastwest;rounded=0;shadow=0;html=0;" parent="zkfFHV4jXpPFQw0GAbJ--0" vertex="1">
          <mxGeometry y="78" width="290" height="32" as="geometry" />
        </mxCell>
        <mxCell id="5f6ITapkhqQKlU94pM2r-1" value="-numPlazaMin: Integer" style="text;align=left;verticalAlign=top;spacingLeft=4;spacingRight=4;overflow=hidden;rotatable=0;points=[[0,0.5],[1,0.5]];portConstraint=eastwest;rounded=0;shadow=0;html=0;" vertex="1" parent="zkfFHV4jXpPFQw0GAbJ--0">
          <mxGeometry y="110" width="290" height="32" as="geometry" />
        </mxCell>
        <mxCell id="5f6ITapkhqQKlU94pM2r-2" value="-numPlazaMax: Integer" style="text;align=left;verticalAlign=top;spacingLeft=4;spacingRight=4;overflow=hidden;rotatable=0;points=[[0,0.5],[1,0.5]];portConstraint=eastwest;rounded=0;shadow=0;html=0;" vertex="1" parent="zkfFHV4jXpPFQw0GAbJ--0">
          <mxGeometry y="142" width="290" height="32" as="geometry" />
        </mxCell>
        <mxCell id="5f6ITapkhqQKlU94pM2r-3" value="-numPrecioNoche: Double" style="text;align=left;verticalAlign=top;spacingLeft=4;spacingRight=4;overflow=hidden;rotatable=0;points=[[0,0.5],[1,0.5]];portConstraint=eastwest;rounded=0;shadow=0;html=0;" vertex="1" parent="zkfFHV4jXpPFQw0GAbJ--0">
          <mxGeometry y="174" width="290" height="32" as="geometry" />
        </mxCell>
        <mxCell id="zkfFHV4jXpPFQw0GAbJ--4" value="" style="line;html=1;strokeWidth=1;align=left;verticalAlign=middle;spacingTop=-1;spacingLeft=3;spacingRight=3;rotatable=0;labelPosition=right;points=[];portConstraint=eastwest;" parent="zkfFHV4jXpPFQw0GAbJ--0" vertex="1">
          <mxGeometry y="206" width="290" height="20" as="geometry" />
        </mxCell>
        <mxCell id="zkfFHV4jXpPFQw0GAbJ--5" value="+buscarAlojamientoUsuario(Authentication)" style="text;align=left;verticalAlign=top;spacingLeft=4;spacingRight=4;overflow=hidden;rotatable=0;points=[[0,0.5],[1,0.5]];portConstraint=eastwest;" parent="zkfFHV4jXpPFQw0GAbJ--0" vertex="1">
          <mxGeometry y="226" width="290" height="20" as="geometry" />
        </mxCell>
        <mxCell id="5f6ITapkhqQKlU94pM2r-6" value="+buscarAlojamientoWithFilters(String, List, &#xa;Double, Double, LocalDate, LocalDate, Pageable)" style="text;align=left;verticalAlign=top;spacingLeft=4;spacingRight=4;overflow=hidden;rotatable=0;points=[[0,0.5],[1,0.5]];portConstraint=eastwest;" vertex="1" parent="zkfFHV4jXpPFQw0GAbJ--0">
          <mxGeometry y="246" width="290" height="34" as="geometry" />
        </mxCell>
        <mxCell id="5f6ITapkhqQKlU94pM2r-7" value="+buscarAlojamientoById(Long)" style="text;align=left;verticalAlign=top;spacingLeft=4;spacingRight=4;overflow=hidden;rotatable=0;points=[[0,0.5],[1,0.5]];portConstraint=eastwest;" vertex="1" parent="zkfFHV4jXpPFQw0GAbJ--0">
          <mxGeometry y="280" width="290" height="20" as="geometry" />
        </mxCell>
        <mxCell id="5f6ITapkhqQKlU94pM2r-8" value="+buscarAlojamientoByIdForGestion(Long,&#xa; Authentication)" style="text;align=left;verticalAlign=top;spacingLeft=4;spacingRight=4;overflow=hidden;rotatable=0;points=[[0,0.5],[1,0.5]];portConstraint=eastwest;" vertex="1" parent="zkfFHV4jXpPFQw0GAbJ--0">
          <mxGeometry y="300" width="290" height="30" as="geometry" />
        </mxCell>
        <mxCell id="5f6ITapkhqQKlU94pM2r-9" value="+buscarAlojamientoByUsername(String)" style="text;align=left;verticalAlign=top;spacingLeft=4;spacingRight=4;overflow=hidden;rotatable=0;points=[[0,0.5],[1,0.5]];portConstraint=eastwest;" vertex="1" parent="zkfFHV4jXpPFQw0GAbJ--0">
          <mxGeometry y="330" width="290" height="20" as="geometry" />
        </mxCell>
        <mxCell id="5f6ITapkhqQKlU94pM2r-10" value="+aniadirAlojamiento(AlojamientoDTO, &#xa;Authentication)" style="text;align=left;verticalAlign=top;spacingLeft=4;spacingRight=4;overflow=hidden;rotatable=0;points=[[0,0.5],[1,0.5]];portConstraint=eastwest;" vertex="1" parent="zkfFHV4jXpPFQw0GAbJ--0">
          <mxGeometry y="350" width="290" height="30" as="geometry" />
        </mxCell>
        <mxCell id="5f6ITapkhqQKlU94pM2r-11" value="+modificarAlojamiento(AlojamientoDTO, &#xa;Authentication)" style="text;align=left;verticalAlign=top;spacingLeft=4;spacingRight=4;overflow=hidden;rotatable=0;points=[[0,0.5],[1,0.5]];portConstraint=eastwest;" vertex="1" parent="zkfFHV4jXpPFQw0GAbJ--0">
          <mxGeometry y="380" width="290" height="30" as="geometry" />
        </mxCell>
        <mxCell id="5f6ITapkhqQKlU94pM2r-12" value="+eliminarAlojamiento(Long)" style="text;align=left;verticalAlign=top;spacingLeft=4;spacingRight=4;overflow=hidden;rotatable=0;points=[[0,0.5],[1,0.5]];portConstraint=eastwest;" vertex="1" parent="zkfFHV4jXpPFQw0GAbJ--0">
          <mxGeometry y="410" width="290" height="20" as="geometry" />
        </mxCell>
        <mxCell id="5f6ITapkhqQKlU94pM2r-13" value="+toDto(Alojamiento)" style="text;align=left;verticalAlign=top;spacingLeft=4;spacingRight=4;overflow=hidden;rotatable=0;points=[[0,0.5],[1,0.5]];portConstraint=eastwest;" vertex="1" parent="zkfFHV4jXpPFQw0GAbJ--0">
          <mxGeometry y="430" width="290" height="34" as="geometry" />
        </mxCell>
        <mxCell id="zkfFHV4jXpPFQw0GAbJ--17" value="AlojamientoComodidadAlojamiento" style="swimlane;fontStyle=0;align=center;verticalAlign=top;childLayout=stackLayout;horizontal=1;startSize=26;horizontalStack=0;resizeParent=1;resizeLast=0;collapsible=1;marginBottom=0;rounded=0;shadow=0;strokeWidth=1;" parent="WIyWlLk6GJQsqaUBKTNV-1" vertex="1">
          <mxGeometry x="690" y="1020" width="340" height="90" as="geometry">
            <mxRectangle x="550" y="140" width="160" height="26" as="alternateBounds" />
          </mxGeometry>
        </mxCell>
        <mxCell id="zkfFHV4jXpPFQw0GAbJ--18" value="-id: Long" style="text;align=left;verticalAlign=top;spacingLeft=4;spacingRight=4;overflow=hidden;rotatable=0;points=[[0,0.5],[1,0.5]];portConstraint=eastwest;" parent="zkfFHV4jXpPFQw0GAbJ--17" vertex="1">
          <mxGeometry y="26" width="340" height="26" as="geometry" />
        </mxCell>
        <mxCell id="zkfFHV4jXpPFQw0GAbJ--23" value="" style="line;html=1;strokeWidth=1;align=left;verticalAlign=middle;spacingTop=-1;spacingLeft=3;spacingRight=3;rotatable=0;labelPosition=right;points=[];portConstraint=eastwest;" parent="zkfFHV4jXpPFQw0GAbJ--17" vertex="1">
          <mxGeometry y="52" width="340" height="8" as="geometry" />
        </mxCell>
        <mxCell id="5f6ITapkhqQKlU94pM2r-218" value="+toDoWithoutAlojamiento(AlojamientoComodidadAlojamiento)" style="text;align=left;verticalAlign=top;spacingLeft=4;spacingRight=4;overflow=hidden;rotatable=0;points=[[0,0.5],[1,0.5]];portConstraint=eastwest;" vertex="1" parent="zkfFHV4jXpPFQw0GAbJ--17">
          <mxGeometry y="60" width="340" height="20" as="geometry" />
        </mxCell>
        <mxCell id="zkfFHV4jXpPFQw0GAbJ--26" value="" style="endArrow=open;shadow=0;strokeWidth=1;rounded=0;curved=0;endFill=1;edgeStyle=elbowEdgeStyle;elbow=vertical;" parent="WIyWlLk6GJQsqaUBKTNV-1" source="zkfFHV4jXpPFQw0GAbJ--0" target="zkfFHV4jXpPFQw0GAbJ--17" edge="1">
          <mxGeometry x="0.5" y="41" relative="1" as="geometry">
            <mxPoint x="380" y="192" as="sourcePoint" />
            <mxPoint x="540" y="192" as="targetPoint" />
            <mxPoint x="-40" y="32" as="offset" />
          </mxGeometry>
        </mxCell>
        <mxCell id="zkfFHV4jXpPFQw0GAbJ--27" value="0..1" style="resizable=0;align=left;verticalAlign=bottom;labelBackgroundColor=none;fontSize=12;" parent="zkfFHV4jXpPFQw0GAbJ--26" connectable="0" vertex="1">
          <mxGeometry x="-1" relative="1" as="geometry">
            <mxPoint y="4" as="offset" />
          </mxGeometry>
        </mxCell>
        <mxCell id="zkfFHV4jXpPFQw0GAbJ--28" value="0..*" style="resizable=0;align=right;verticalAlign=bottom;labelBackgroundColor=none;fontSize=12;" parent="zkfFHV4jXpPFQw0GAbJ--26" connectable="0" vertex="1">
          <mxGeometry x="1" relative="1" as="geometry">
            <mxPoint x="-7" y="4" as="offset" />
          </mxGeometry>
        </mxCell>
        <mxCell id="5f6ITapkhqQKlU94pM2r-14" value="AlojamientoDiasOcupados" style="swimlane;fontStyle=2;align=center;verticalAlign=top;childLayout=stackLayout;horizontal=1;startSize=26;horizontalStack=0;resizeParent=1;resizeLast=0;collapsible=1;marginBottom=0;rounded=0;shadow=0;strokeWidth=1;" vertex="1" parent="WIyWlLk6GJQsqaUBKTNV-1">
          <mxGeometry x="740" y="790" width="220" height="210" as="geometry">
            <mxRectangle x="230" y="140" width="160" height="26" as="alternateBounds" />
          </mxGeometry>
        </mxCell>
        <mxCell id="5f6ITapkhqQKlU94pM2r-15" value="-id: Long" style="text;align=left;verticalAlign=top;spacingLeft=4;spacingRight=4;overflow=hidden;rotatable=0;points=[[0,0.5],[1,0.5]];portConstraint=eastwest;" vertex="1" parent="5f6ITapkhqQKlU94pM2r-14">
          <mxGeometry y="26" width="220" height="26" as="geometry" />
        </mxCell>
        <mxCell id="5f6ITapkhqQKlU94pM2r-16" value="-dia: Integer" style="text;align=left;verticalAlign=top;spacingLeft=4;spacingRight=4;overflow=hidden;rotatable=0;points=[[0,0.5],[1,0.5]];portConstraint=eastwest;rounded=0;shadow=0;html=0;" vertex="1" parent="5f6ITapkhqQKlU94pM2r-14">
          <mxGeometry y="52" width="220" height="26" as="geometry" />
        </mxCell>
        <mxCell id="5f6ITapkhqQKlU94pM2r-17" value="-mes: Integer" style="text;align=left;verticalAlign=top;spacingLeft=4;spacingRight=4;overflow=hidden;rotatable=0;points=[[0,0.5],[1,0.5]];portConstraint=eastwest;rounded=0;shadow=0;html=0;" vertex="1" parent="5f6ITapkhqQKlU94pM2r-14">
          <mxGeometry y="78" width="220" height="32" as="geometry" />
        </mxCell>
        <mxCell id="5f6ITapkhqQKlU94pM2r-18" value="-anyo: Integer" style="text;align=left;verticalAlign=top;spacingLeft=4;spacingRight=4;overflow=hidden;rotatable=0;points=[[0,0.5],[1,0.5]];portConstraint=eastwest;rounded=0;shadow=0;html=0;" vertex="1" parent="5f6ITapkhqQKlU94pM2r-14">
          <mxGeometry y="110" width="220" height="32" as="geometry" />
        </mxCell>
        <mxCell id="5f6ITapkhqQKlU94pM2r-21" value="" style="line;html=1;strokeWidth=1;align=left;verticalAlign=middle;spacingTop=-1;spacingLeft=3;spacingRight=3;rotatable=0;labelPosition=right;points=[];portConstraint=eastwest;" vertex="1" parent="5f6ITapkhqQKlU94pM2r-14">
          <mxGeometry y="142" width="220" height="20" as="geometry" />
        </mxCell>
        <mxCell id="5f6ITapkhqQKlU94pM2r-40" value="AlquilerAlojamiento" style="swimlane;fontStyle=2;align=center;verticalAlign=top;childLayout=stackLayout;horizontal=1;startSize=26;horizontalStack=0;resizeParent=1;resizeLast=0;collapsible=1;marginBottom=0;rounded=0;shadow=0;strokeWidth=1;" vertex="1" parent="WIyWlLk6GJQsqaUBKTNV-1">
          <mxGeometry x="740" y="470" width="290" height="300" as="geometry">
            <mxRectangle x="230" y="140" width="160" height="26" as="alternateBounds" />
          </mxGeometry>
        </mxCell>
        <mxCell id="5f6ITapkhqQKlU94pM2r-41" value="-id: Long" style="text;align=left;verticalAlign=top;spacingLeft=4;spacingRight=4;overflow=hidden;rotatable=0;points=[[0,0.5],[1,0.5]];portConstraint=eastwest;" vertex="1" parent="5f6ITapkhqQKlU94pM2r-40">
          <mxGeometry y="26" width="290" height="26" as="geometry" />
        </mxCell>
        <mxCell id="5f6ITapkhqQKlU94pM2r-42" value="-fechaInicioAlquiler: LocalDate" style="text;align=left;verticalAlign=top;spacingLeft=4;spacingRight=4;overflow=hidden;rotatable=0;points=[[0,0.5],[1,0.5]];portConstraint=eastwest;rounded=0;shadow=0;html=0;" vertex="1" parent="5f6ITapkhqQKlU94pM2r-40">
          <mxGeometry y="52" width="290" height="26" as="geometry" />
        </mxCell>
        <mxCell id="5f6ITapkhqQKlU94pM2r-43" value="-fechaFinAlquiler: LocalDate" style="text;align=left;verticalAlign=top;spacingLeft=4;spacingRight=4;overflow=hidden;rotatable=0;points=[[0,0.5],[1,0.5]];portConstraint=eastwest;rounded=0;shadow=0;html=0;" vertex="1" parent="5f6ITapkhqQKlU94pM2r-40">
          <mxGeometry y="78" width="290" height="32" as="geometry" />
        </mxCell>
        <mxCell id="5f6ITapkhqQKlU94pM2r-44" value="-precioTotalAlquiler: Double" style="text;align=left;verticalAlign=top;spacingLeft=4;spacingRight=4;overflow=hidden;rotatable=0;points=[[0,0.5],[1,0.5]];portConstraint=eastwest;rounded=0;shadow=0;html=0;" vertex="1" parent="5f6ITapkhqQKlU94pM2r-40">
          <mxGeometry y="110" width="290" height="32" as="geometry" />
        </mxCell>
        <mxCell id="5f6ITapkhqQKlU94pM2r-45" value="-numPlazasReservadas: Integer" style="text;align=left;verticalAlign=top;spacingLeft=4;spacingRight=4;overflow=hidden;rotatable=0;points=[[0,0.5],[1,0.5]];portConstraint=eastwest;rounded=0;shadow=0;html=0;" vertex="1" parent="5f6ITapkhqQKlU94pM2r-40">
          <mxGeometry y="142" width="290" height="32" as="geometry" />
        </mxCell>
        <mxCell id="5f6ITapkhqQKlU94pM2r-47" value="" style="line;html=1;strokeWidth=1;align=left;verticalAlign=middle;spacingTop=-1;spacingLeft=3;spacingRight=3;rotatable=0;labelPosition=right;points=[];portConstraint=eastwest;" vertex="1" parent="5f6ITapkhqQKlU94pM2r-40">
          <mxGeometry y="174" width="290" height="20" as="geometry" />
        </mxCell>
        <mxCell id="5f6ITapkhqQKlU94pM2r-48" value="+realizarReserva(AlquilerAlojamientoDTO, &#xa;Authentication)" style="text;align=left;verticalAlign=top;spacingLeft=4;spacingRight=4;overflow=hidden;rotatable=0;points=[[0,0.5],[1,0.5]];portConstraint=eastwest;" vertex="1" parent="5f6ITapkhqQKlU94pM2r-40">
          <mxGeometry y="194" width="290" height="36" as="geometry" />
        </mxCell>
        <mxCell id="5f6ITapkhqQKlU94pM2r-49" value="+cancelarReserva(Long)" style="text;align=left;verticalAlign=top;spacingLeft=4;spacingRight=4;overflow=hidden;rotatable=0;points=[[0,0.5],[1,0.5]];portConstraint=eastwest;" vertex="1" parent="5f6ITapkhqQKlU94pM2r-40">
          <mxGeometry y="230" width="290" height="20" as="geometry" />
        </mxCell>
        <mxCell id="5f6ITapkhqQKlU94pM2r-50" value="+buscarReservasUsuario(Authentication)" style="text;align=left;verticalAlign=top;spacingLeft=4;spacingRight=4;overflow=hidden;rotatable=0;points=[[0,0.5],[1,0.5]];portConstraint=eastwest;" vertex="1" parent="5f6ITapkhqQKlU94pM2r-40">
          <mxGeometry y="250" width="290" height="20" as="geometry" />
        </mxCell>
        <mxCell id="5f6ITapkhqQKlU94pM2r-56" value="+toDto(AlquilerAlojamiento)" style="text;align=left;verticalAlign=top;spacingLeft=4;spacingRight=4;overflow=hidden;rotatable=0;points=[[0,0.5],[1,0.5]];portConstraint=eastwest;" vertex="1" parent="5f6ITapkhqQKlU94pM2r-40">
          <mxGeometry y="270" width="290" height="20" as="geometry" />
        </mxCell>
        <mxCell id="5f6ITapkhqQKlU94pM2r-57" value="" style="endArrow=open;shadow=0;strokeWidth=1;rounded=0;curved=0;endFill=1;edgeStyle=elbowEdgeStyle;elbow=vertical;exitX=1;exitY=0.5;exitDx=0;exitDy=0;entryX=-0.002;entryY=0.877;entryDx=0;entryDy=0;entryPerimeter=0;" edge="1" parent="WIyWlLk6GJQsqaUBKTNV-1" source="5f6ITapkhqQKlU94pM2r-2" target="5f6ITapkhqQKlU94pM2r-15">
          <mxGeometry x="0.5" y="41" relative="1" as="geometry">
            <mxPoint x="610" y="640" as="sourcePoint" />
            <mxPoint x="730" y="841" as="targetPoint" />
            <mxPoint x="-40" y="32" as="offset" />
          </mxGeometry>
        </mxCell>
        <mxCell id="5f6ITapkhqQKlU94pM2r-58" value="0..1" style="resizable=0;align=left;verticalAlign=bottom;labelBackgroundColor=none;fontSize=12;" connectable="0" vertex="1" parent="5f6ITapkhqQKlU94pM2r-57">
          <mxGeometry x="-1" relative="1" as="geometry">
            <mxPoint y="4" as="offset" />
          </mxGeometry>
        </mxCell>
        <mxCell id="5f6ITapkhqQKlU94pM2r-59" value="0..*" style="resizable=0;align=right;verticalAlign=bottom;labelBackgroundColor=none;fontSize=12;" connectable="0" vertex="1" parent="5f6ITapkhqQKlU94pM2r-57">
          <mxGeometry x="1" relative="1" as="geometry">
            <mxPoint x="-7" y="4" as="offset" />
          </mxGeometry>
        </mxCell>
        <mxCell id="5f6ITapkhqQKlU94pM2r-61" value="" style="endArrow=open;shadow=0;strokeWidth=1;rounded=0;curved=0;endFill=1;edgeStyle=elbowEdgeStyle;elbow=vertical;entryX=-0.002;entryY=0.877;entryDx=0;entryDy=0;entryPerimeter=0;" edge="1" parent="WIyWlLk6GJQsqaUBKTNV-1">
          <mxGeometry x="0.5" y="41" relative="1" as="geometry">
            <mxPoint x="630" y="701" as="sourcePoint" />
            <mxPoint x="740" y="701" as="targetPoint" />
            <mxPoint x="-40" y="32" as="offset" />
            <Array as="points">
              <mxPoint x="640" y="701" />
            </Array>
          </mxGeometry>
        </mxCell>
        <mxCell id="5f6ITapkhqQKlU94pM2r-62" value="0..1" style="resizable=0;align=left;verticalAlign=bottom;labelBackgroundColor=none;fontSize=12;" connectable="0" vertex="1" parent="5f6ITapkhqQKlU94pM2r-61">
          <mxGeometry x="-1" relative="1" as="geometry">
            <mxPoint y="4" as="offset" />
          </mxGeometry>
        </mxCell>
        <mxCell id="5f6ITapkhqQKlU94pM2r-63" value="0..*" style="resizable=0;align=right;verticalAlign=bottom;labelBackgroundColor=none;fontSize=12;" connectable="0" vertex="1" parent="5f6ITapkhqQKlU94pM2r-61">
          <mxGeometry x="1" relative="1" as="geometry">
            <mxPoint x="-7" y="4" as="offset" />
          </mxGeometry>
        </mxCell>
        <mxCell id="5f6ITapkhqQKlU94pM2r-64" value="ComodidadAlojamiento" style="swimlane;fontStyle=2;align=center;verticalAlign=top;childLayout=stackLayout;horizontal=1;startSize=26;horizontalStack=0;resizeParent=1;resizeLast=0;collapsible=1;marginBottom=0;rounded=0;shadow=0;strokeWidth=1;" vertex="1" parent="WIyWlLk6GJQsqaUBKTNV-1">
          <mxGeometry x="740" y="1180" width="290" height="320" as="geometry">
            <mxRectangle x="230" y="140" width="160" height="26" as="alternateBounds" />
          </mxGeometry>
        </mxCell>
        <mxCell id="5f6ITapkhqQKlU94pM2r-65" value="-id: Long" style="text;align=left;verticalAlign=top;spacingLeft=4;spacingRight=4;overflow=hidden;rotatable=0;points=[[0,0.5],[1,0.5]];portConstraint=eastwest;" vertex="1" parent="5f6ITapkhqQKlU94pM2r-64">
          <mxGeometry y="26" width="290" height="26" as="geometry" />
        </mxCell>
        <mxCell id="5f6ITapkhqQKlU94pM2r-66" value="-codigoComodidad: String" style="text;align=left;verticalAlign=top;spacingLeft=4;spacingRight=4;overflow=hidden;rotatable=0;points=[[0,0.5],[1,0.5]];portConstraint=eastwest;rounded=0;shadow=0;html=0;" vertex="1" parent="5f6ITapkhqQKlU94pM2r-64">
          <mxGeometry y="52" width="290" height="26" as="geometry" />
        </mxCell>
        <mxCell id="5f6ITapkhqQKlU94pM2r-67" value="-txtNombre: String" style="text;align=left;verticalAlign=top;spacingLeft=4;spacingRight=4;overflow=hidden;rotatable=0;points=[[0,0.5],[1,0.5]];portConstraint=eastwest;rounded=0;shadow=0;html=0;" vertex="1" parent="5f6ITapkhqQKlU94pM2r-64">
          <mxGeometry y="78" width="290" height="32" as="geometry" />
        </mxCell>
        <mxCell id="5f6ITapkhqQKlU94pM2r-68" value="-txtDescripcion: String" style="text;align=left;verticalAlign=top;spacingLeft=4;spacingRight=4;overflow=hidden;rotatable=0;points=[[0,0.5],[1,0.5]];portConstraint=eastwest;rounded=0;shadow=0;html=0;" vertex="1" parent="5f6ITapkhqQKlU94pM2r-64">
          <mxGeometry y="110" width="290" height="32" as="geometry" />
        </mxCell>
        <mxCell id="5f6ITapkhqQKlU94pM2r-69" value="-iconoComodidad: String" style="text;align=left;verticalAlign=top;spacingLeft=4;spacingRight=4;overflow=hidden;rotatable=0;points=[[0,0.5],[1,0.5]];portConstraint=eastwest;rounded=0;shadow=0;html=0;" vertex="1" parent="5f6ITapkhqQKlU94pM2r-64">
          <mxGeometry y="142" width="290" height="32" as="geometry" />
        </mxCell>
        <mxCell id="5f6ITapkhqQKlU94pM2r-70" value="" style="line;html=1;strokeWidth=1;align=left;verticalAlign=middle;spacingTop=-1;spacingLeft=3;spacingRight=3;rotatable=0;labelPosition=right;points=[];portConstraint=eastwest;" vertex="1" parent="5f6ITapkhqQKlU94pM2r-64">
          <mxGeometry y="174" width="290" height="20" as="geometry" />
        </mxCell>
        <mxCell id="5f6ITapkhqQKlU94pM2r-71" value="+crearComodidad(ComodidadAlojamientoDTO)" style="text;align=left;verticalAlign=top;spacingLeft=4;spacingRight=4;overflow=hidden;rotatable=0;points=[[0,0.5],[1,0.5]];portConstraint=eastwest;" vertex="1" parent="5f6ITapkhqQKlU94pM2r-64">
          <mxGeometry y="194" width="290" height="20" as="geometry" />
        </mxCell>
        <mxCell id="5f6ITapkhqQKlU94pM2r-72" value="+modificarComodidad(ComodidadAlojamientoDTO)" style="text;align=left;verticalAlign=top;spacingLeft=4;spacingRight=4;overflow=hidden;rotatable=0;points=[[0,0.5],[1,0.5]];portConstraint=eastwest;" vertex="1" parent="5f6ITapkhqQKlU94pM2r-64">
          <mxGeometry y="214" width="290" height="20" as="geometry" />
        </mxCell>
        <mxCell id="5f6ITapkhqQKlU94pM2r-73" value="+eliminarComodidad(String)" style="text;align=left;verticalAlign=top;spacingLeft=4;spacingRight=4;overflow=hidden;rotatable=0;points=[[0,0.5],[1,0.5]];portConstraint=eastwest;" vertex="1" parent="5f6ITapkhqQKlU94pM2r-64">
          <mxGeometry y="234" width="290" height="20" as="geometry" />
        </mxCell>
        <mxCell id="5f6ITapkhqQKlU94pM2r-74" value="+buscarComodidadAlojamientoPorCod(String)" style="text;align=left;verticalAlign=top;spacingLeft=4;spacingRight=4;overflow=hidden;rotatable=0;points=[[0,0.5],[1,0.5]];portConstraint=eastwest;" vertex="1" parent="5f6ITapkhqQKlU94pM2r-64">
          <mxGeometry y="254" width="290" height="20" as="geometry" />
        </mxCell>
        <mxCell id="5f6ITapkhqQKlU94pM2r-75" value="+findComodidadesFromBuscador(String, String, &#xa;Integer, String, Pageable)" style="text;align=left;verticalAlign=top;spacingLeft=4;spacingRight=4;overflow=hidden;rotatable=0;points=[[0,0.5],[1,0.5]];portConstraint=eastwest;" vertex="1" parent="5f6ITapkhqQKlU94pM2r-64">
          <mxGeometry y="274" width="290" height="36" as="geometry" />
        </mxCell>
        <mxCell id="5f6ITapkhqQKlU94pM2r-76" value="" style="endArrow=open;shadow=0;strokeWidth=1;rounded=0;curved=0;endFill=1;edgeStyle=elbowEdgeStyle;elbow=vertical;exitX=0.5;exitY=1;exitDx=0;exitDy=0;" edge="1" parent="WIyWlLk6GJQsqaUBKTNV-1" source="zkfFHV4jXpPFQw0GAbJ--17">
          <mxGeometry x="0.5" y="41" relative="1" as="geometry">
            <mxPoint x="848" y="1120" as="sourcePoint" />
            <mxPoint x="850" y="1178" as="targetPoint" />
            <mxPoint x="-40" y="32" as="offset" />
          </mxGeometry>
        </mxCell>
        <mxCell id="5f6ITapkhqQKlU94pM2r-77" value="0..1" style="resizable=0;align=left;verticalAlign=bottom;labelBackgroundColor=none;fontSize=12;" connectable="0" vertex="1" parent="5f6ITapkhqQKlU94pM2r-76">
          <mxGeometry x="-1" relative="1" as="geometry">
            <mxPoint x="10" y="20" as="offset" />
          </mxGeometry>
        </mxCell>
        <mxCell id="5f6ITapkhqQKlU94pM2r-78" value="0..*" style="resizable=0;align=right;verticalAlign=bottom;labelBackgroundColor=none;fontSize=12;" connectable="0" vertex="1" parent="5f6ITapkhqQKlU94pM2r-76">
          <mxGeometry x="1" relative="1" as="geometry">
            <mxPoint x="30" y="2" as="offset" />
          </mxGeometry>
        </mxCell>
        <mxCell id="5f6ITapkhqQKlU94pM2r-79" value="GoogleUser" style="swimlane;fontStyle=2;align=center;verticalAlign=top;childLayout=stackLayout;horizontal=1;startSize=26;horizontalStack=0;resizeParent=1;resizeLast=0;collapsible=1;marginBottom=0;rounded=0;shadow=0;strokeWidth=1;" vertex="1" parent="WIyWlLk6GJQsqaUBKTNV-1">
          <mxGeometry x="50" y="100" width="220" height="280" as="geometry">
            <mxRectangle x="230" y="140" width="160" height="26" as="alternateBounds" />
          </mxGeometry>
        </mxCell>
        <mxCell id="5f6ITapkhqQKlU94pM2r-80" value="-id: int" style="text;align=left;verticalAlign=top;spacingLeft=4;spacingRight=4;overflow=hidden;rotatable=0;points=[[0,0.5],[1,0.5]];portConstraint=eastwest;" vertex="1" parent="5f6ITapkhqQKlU94pM2r-79">
          <mxGeometry y="26" width="220" height="26" as="geometry" />
        </mxCell>
        <mxCell id="5f6ITapkhqQKlU94pM2r-81" value="-email: String" style="text;align=left;verticalAlign=top;spacingLeft=4;spacingRight=4;overflow=hidden;rotatable=0;points=[[0,0.5],[1,0.5]];portConstraint=eastwest;rounded=0;shadow=0;html=0;" vertex="1" parent="5f6ITapkhqQKlU94pM2r-79">
          <mxGeometry y="52" width="220" height="26" as="geometry" />
        </mxCell>
        <mxCell id="5f6ITapkhqQKlU94pM2r-82" value="-name: String" style="text;align=left;verticalAlign=top;spacingLeft=4;spacingRight=4;overflow=hidden;rotatable=0;points=[[0,0.5],[1,0.5]];portConstraint=eastwest;rounded=0;shadow=0;html=0;" vertex="1" parent="5f6ITapkhqQKlU94pM2r-79">
          <mxGeometry y="78" width="220" height="32" as="geometry" />
        </mxCell>
        <mxCell id="5f6ITapkhqQKlU94pM2r-83" value="-givenName: String" style="text;align=left;verticalAlign=top;spacingLeft=4;spacingRight=4;overflow=hidden;rotatable=0;points=[[0,0.5],[1,0.5]];portConstraint=eastwest;rounded=0;shadow=0;html=0;" vertex="1" parent="5f6ITapkhqQKlU94pM2r-79">
          <mxGeometry y="110" width="220" height="32" as="geometry" />
        </mxCell>
        <mxCell id="5f6ITapkhqQKlU94pM2r-84" value="-familyName: String" style="text;align=left;verticalAlign=top;spacingLeft=4;spacingRight=4;overflow=hidden;rotatable=0;points=[[0,0.5],[1,0.5]];portConstraint=eastwest;rounded=0;shadow=0;html=0;" vertex="1" parent="5f6ITapkhqQKlU94pM2r-79">
          <mxGeometry y="142" width="220" height="32" as="geometry" />
        </mxCell>
        <mxCell id="5f6ITapkhqQKlU94pM2r-85" value="-pictureUrl: String" style="text;align=left;verticalAlign=top;spacingLeft=4;spacingRight=4;overflow=hidden;rotatable=0;points=[[0,0.5],[1,0.5]];portConstraint=eastwest;rounded=0;shadow=0;html=0;" vertex="1" parent="5f6ITapkhqQKlU94pM2r-79">
          <mxGeometry y="174" width="220" height="32" as="geometry" />
        </mxCell>
        <mxCell id="5f6ITapkhqQKlU94pM2r-86" value="" style="line;html=1;strokeWidth=1;align=left;verticalAlign=middle;spacingTop=-1;spacingLeft=3;spacingRight=3;rotatable=0;labelPosition=right;points=[];portConstraint=eastwest;" vertex="1" parent="5f6ITapkhqQKlU94pM2r-79">
          <mxGeometry y="206" width="220" height="20" as="geometry" />
        </mxCell>
        <mxCell id="5f6ITapkhqQKlU94pM2r-87" value="+fromOauth2User(OAuth2User)" style="text;align=left;verticalAlign=top;spacingLeft=4;spacingRight=4;overflow=hidden;rotatable=0;points=[[0,0.5],[1,0.5]];portConstraint=eastwest;" vertex="1" parent="5f6ITapkhqQKlU94pM2r-79">
          <mxGeometry y="226" width="220" height="20" as="geometry" />
        </mxCell>
        <mxCell id="5f6ITapkhqQKlU94pM2r-88" value="+toString()" style="text;align=left;verticalAlign=top;spacingLeft=4;spacingRight=4;overflow=hidden;rotatable=0;points=[[0,0.5],[1,0.5]];portConstraint=eastwest;" vertex="1" parent="5f6ITapkhqQKlU94pM2r-79">
          <mxGeometry y="246" width="220" height="20" as="geometry" />
        </mxCell>
        <mxCell id="5f6ITapkhqQKlU94pM2r-96" value="ImagenAlojamiento" style="swimlane;fontStyle=2;align=center;verticalAlign=top;childLayout=stackLayout;horizontal=1;startSize=26;horizontalStack=0;resizeParent=1;resizeLast=0;collapsible=1;marginBottom=0;rounded=0;shadow=0;strokeWidth=1;" vertex="1" parent="WIyWlLk6GJQsqaUBKTNV-1">
          <mxGeometry x="390" y="1230" width="220" height="150" as="geometry">
            <mxRectangle x="230" y="140" width="160" height="26" as="alternateBounds" />
          </mxGeometry>
        </mxCell>
        <mxCell id="5f6ITapkhqQKlU94pM2r-97" value="-id: Long" style="text;align=left;verticalAlign=top;spacingLeft=4;spacingRight=4;overflow=hidden;rotatable=0;points=[[0,0.5],[1,0.5]];portConstraint=eastwest;" vertex="1" parent="5f6ITapkhqQKlU94pM2r-96">
          <mxGeometry y="26" width="220" height="26" as="geometry" />
        </mxCell>
        <mxCell id="5f6ITapkhqQKlU94pM2r-98" value="-urlDatosImagen: String" style="text;align=left;verticalAlign=top;spacingLeft=4;spacingRight=4;overflow=hidden;rotatable=0;points=[[0,0.5],[1,0.5]];portConstraint=eastwest;rounded=0;shadow=0;html=0;" vertex="1" parent="5f6ITapkhqQKlU94pM2r-96">
          <mxGeometry y="52" width="220" height="26" as="geometry" />
        </mxCell>
        <mxCell id="5f6ITapkhqQKlU94pM2r-99" value="-numOrden: Integer" style="text;align=left;verticalAlign=top;spacingLeft=4;spacingRight=4;overflow=hidden;rotatable=0;points=[[0,0.5],[1,0.5]];portConstraint=eastwest;rounded=0;shadow=0;html=0;" vertex="1" parent="5f6ITapkhqQKlU94pM2r-96">
          <mxGeometry y="78" width="220" height="32" as="geometry" />
        </mxCell>
        <mxCell id="5f6ITapkhqQKlU94pM2r-103" value="" style="line;html=1;strokeWidth=1;align=left;verticalAlign=middle;spacingTop=-1;spacingLeft=3;spacingRight=3;rotatable=0;labelPosition=right;points=[];portConstraint=eastwest;" vertex="1" parent="5f6ITapkhqQKlU94pM2r-96">
          <mxGeometry y="110" width="220" height="20" as="geometry" />
        </mxCell>
        <mxCell id="5f6ITapkhqQKlU94pM2r-113" value="" style="endArrow=open;shadow=0;strokeWidth=1;rounded=0;curved=0;endFill=1;edgeStyle=elbowEdgeStyle;elbow=vertical;entryX=0.542;entryY=0;entryDx=0;entryDy=0;entryPerimeter=0;" edge="1" parent="WIyWlLk6GJQsqaUBKTNV-1" target="5f6ITapkhqQKlU94pM2r-96">
          <mxGeometry x="0.5" y="41" relative="1" as="geometry">
            <mxPoint x="510" y="1150" as="sourcePoint" />
            <mxPoint x="620" y="1130" as="targetPoint" />
            <mxPoint x="-40" y="32" as="offset" />
          </mxGeometry>
        </mxCell>
        <mxCell id="5f6ITapkhqQKlU94pM2r-114" value="0..1" style="resizable=0;align=left;verticalAlign=bottom;labelBackgroundColor=none;fontSize=12;" connectable="0" vertex="1" parent="5f6ITapkhqQKlU94pM2r-113">
          <mxGeometry x="-1" relative="1" as="geometry">
            <mxPoint x="10" y="20" as="offset" />
          </mxGeometry>
        </mxCell>
        <mxCell id="5f6ITapkhqQKlU94pM2r-115" value="0..*" style="resizable=0;align=right;verticalAlign=bottom;labelBackgroundColor=none;fontSize=12;" connectable="0" vertex="1" parent="5f6ITapkhqQKlU94pM2r-113">
          <mxGeometry x="1" relative="1" as="geometry">
            <mxPoint x="30" y="-10" as="offset" />
          </mxGeometry>
        </mxCell>
        <mxCell id="5f6ITapkhqQKlU94pM2r-116" value="Perfil" style="swimlane;fontStyle=2;align=center;verticalAlign=top;childLayout=stackLayout;horizontal=1;startSize=26;horizontalStack=0;resizeParent=1;resizeLast=0;collapsible=1;marginBottom=0;rounded=0;shadow=0;strokeWidth=1;" vertex="1" parent="WIyWlLk6GJQsqaUBKTNV-1">
          <mxGeometry x="740" y="160" width="290" height="180" as="geometry">
            <mxRectangle x="230" y="140" width="160" height="26" as="alternateBounds" />
          </mxGeometry>
        </mxCell>
        <mxCell id="5f6ITapkhqQKlU94pM2r-117" value="-id: Long" style="text;align=left;verticalAlign=top;spacingLeft=4;spacingRight=4;overflow=hidden;rotatable=0;points=[[0,0.5],[1,0.5]];portConstraint=eastwest;" vertex="1" parent="5f6ITapkhqQKlU94pM2r-116">
          <mxGeometry y="26" width="290" height="26" as="geometry" />
        </mxCell>
        <mxCell id="5f6ITapkhqQKlU94pM2r-118" value="-codPerfil: CodPerfiles" style="text;align=left;verticalAlign=top;spacingLeft=4;spacingRight=4;overflow=hidden;rotatable=0;points=[[0,0.5],[1,0.5]];portConstraint=eastwest;rounded=0;shadow=0;html=0;" vertex="1" parent="5f6ITapkhqQKlU94pM2r-116">
          <mxGeometry y="52" width="290" height="26" as="geometry" />
        </mxCell>
        <mxCell id="5f6ITapkhqQKlU94pM2r-119" value="-txtPerfil: String" style="text;align=left;verticalAlign=top;spacingLeft=4;spacingRight=4;overflow=hidden;rotatable=0;points=[[0,0.5],[1,0.5]];portConstraint=eastwest;rounded=0;shadow=0;html=0;" vertex="1" parent="5f6ITapkhqQKlU94pM2r-116">
          <mxGeometry y="78" width="290" height="32" as="geometry" />
        </mxCell>
        <mxCell id="5f6ITapkhqQKlU94pM2r-123" value="" style="line;html=1;strokeWidth=1;align=left;verticalAlign=middle;spacingTop=-1;spacingLeft=3;spacingRight=3;rotatable=0;labelPosition=right;points=[];portConstraint=eastwest;" vertex="1" parent="5f6ITapkhqQKlU94pM2r-116">
          <mxGeometry y="110" width="290" height="20" as="geometry" />
        </mxCell>
        <mxCell id="5f6ITapkhqQKlU94pM2r-124" value="+getAuthority()" style="text;align=left;verticalAlign=top;spacingLeft=4;spacingRight=4;overflow=hidden;rotatable=0;points=[[0,0.5],[1,0.5]];portConstraint=eastwest;" vertex="1" parent="5f6ITapkhqQKlU94pM2r-116">
          <mxGeometry y="130" width="290" height="20" as="geometry" />
        </mxCell>
        <mxCell id="5f6ITapkhqQKlU94pM2r-125" value="+getPerfilesFromUserJpa(Usuario)" style="text;align=left;verticalAlign=top;spacingLeft=4;spacingRight=4;overflow=hidden;rotatable=0;points=[[0,0.5],[1,0.5]];portConstraint=eastwest;" vertex="1" parent="5f6ITapkhqQKlU94pM2r-116">
          <mxGeometry y="150" width="290" height="20" as="geometry" />
        </mxCell>
        <mxCell id="5f6ITapkhqQKlU94pM2r-133" value="TipoComodidad" style="swimlane;fontStyle=2;align=center;verticalAlign=top;childLayout=stackLayout;horizontal=1;startSize=26;horizontalStack=0;resizeParent=1;resizeLast=0;collapsible=1;marginBottom=0;rounded=0;shadow=0;strokeWidth=1;" vertex="1" parent="WIyWlLk6GJQsqaUBKTNV-1">
          <mxGeometry x="390" y="1410" width="220" height="160" as="geometry">
            <mxRectangle x="230" y="140" width="160" height="26" as="alternateBounds" />
          </mxGeometry>
        </mxCell>
        <mxCell id="5f6ITapkhqQKlU94pM2r-134" value="-id: Long" style="text;align=left;verticalAlign=top;spacingLeft=4;spacingRight=4;overflow=hidden;rotatable=0;points=[[0,0.5],[1,0.5]];portConstraint=eastwest;" vertex="1" parent="5f6ITapkhqQKlU94pM2r-133">
          <mxGeometry y="26" width="220" height="26" as="geometry" />
        </mxCell>
        <mxCell id="5f6ITapkhqQKlU94pM2r-135" value="-codigoTipoComodidad: String" style="text;align=left;verticalAlign=top;spacingLeft=4;spacingRight=4;overflow=hidden;rotatable=0;points=[[0,0.5],[1,0.5]];portConstraint=eastwest;rounded=0;shadow=0;html=0;" vertex="1" parent="5f6ITapkhqQKlU94pM2r-133">
          <mxGeometry y="52" width="220" height="26" as="geometry" />
        </mxCell>
        <mxCell id="5f6ITapkhqQKlU94pM2r-136" value="-txtNombre: String" style="text;align=left;verticalAlign=top;spacingLeft=4;spacingRight=4;overflow=hidden;rotatable=0;points=[[0,0.5],[1,0.5]];portConstraint=eastwest;rounded=0;shadow=0;html=0;" vertex="1" parent="5f6ITapkhqQKlU94pM2r-133">
          <mxGeometry y="78" width="220" height="32" as="geometry" />
        </mxCell>
        <mxCell id="5f6ITapkhqQKlU94pM2r-137" value="" style="line;html=1;strokeWidth=1;align=left;verticalAlign=middle;spacingTop=-1;spacingLeft=3;spacingRight=3;rotatable=0;labelPosition=right;points=[];portConstraint=eastwest;" vertex="1" parent="5f6ITapkhqQKlU94pM2r-133">
          <mxGeometry y="110" width="220" height="20" as="geometry" />
        </mxCell>
        <mxCell id="5f6ITapkhqQKlU94pM2r-138" value="+buscarTodosTiposComodidades()" style="text;align=left;verticalAlign=top;spacingLeft=4;spacingRight=4;overflow=hidden;rotatable=0;points=[[0,0.5],[1,0.5]];portConstraint=eastwest;" vertex="1" parent="5f6ITapkhqQKlU94pM2r-133">
          <mxGeometry y="130" width="220" height="20" as="geometry" />
        </mxCell>
        <mxCell id="5f6ITapkhqQKlU94pM2r-141" value="" style="endArrow=open;shadow=0;strokeWidth=1;rounded=0;curved=0;endFill=1;edgeStyle=elbowEdgeStyle;elbow=vertical;" edge="1" parent="WIyWlLk6GJQsqaUBKTNV-1">
          <mxGeometry x="0.5" y="41" relative="1" as="geometry">
            <mxPoint x="610" y="1440" as="sourcePoint" />
            <mxPoint x="740" y="1440" as="targetPoint" />
            <mxPoint x="-40" y="32" as="offset" />
          </mxGeometry>
        </mxCell>
        <mxCell id="5f6ITapkhqQKlU94pM2r-142" value="0..1" style="resizable=0;align=left;verticalAlign=bottom;labelBackgroundColor=none;fontSize=12;" connectable="0" vertex="1" parent="5f6ITapkhqQKlU94pM2r-141">
          <mxGeometry x="-1" relative="1" as="geometry">
            <mxPoint y="4" as="offset" />
          </mxGeometry>
        </mxCell>
        <mxCell id="5f6ITapkhqQKlU94pM2r-143" value="0..*" style="resizable=0;align=right;verticalAlign=bottom;labelBackgroundColor=none;fontSize=12;" connectable="0" vertex="1" parent="5f6ITapkhqQKlU94pM2r-141">
          <mxGeometry x="1" relative="1" as="geometry">
            <mxPoint x="-7" y="4" as="offset" />
          </mxGeometry>
        </mxCell>
        <mxCell id="5f6ITapkhqQKlU94pM2r-144" value="UbicacionAlojamiento" style="swimlane;fontStyle=2;align=center;verticalAlign=top;childLayout=stackLayout;horizontal=1;startSize=26;horizontalStack=0;resizeParent=1;resizeLast=0;collapsible=1;marginBottom=0;rounded=0;shadow=0;strokeWidth=1;" vertex="1" parent="WIyWlLk6GJQsqaUBKTNV-1">
          <mxGeometry x="50" y="880" width="220" height="280" as="geometry">
            <mxRectangle x="230" y="140" width="160" height="26" as="alternateBounds" />
          </mxGeometry>
        </mxCell>
        <mxCell id="5f6ITapkhqQKlU94pM2r-145" value="-id: int" style="text;align=left;verticalAlign=top;spacingLeft=4;spacingRight=4;overflow=hidden;rotatable=0;points=[[0,0.5],[1,0.5]];portConstraint=eastwest;" vertex="1" parent="5f6ITapkhqQKlU94pM2r-144">
          <mxGeometry y="26" width="220" height="26" as="geometry" />
        </mxCell>
        <mxCell id="5f6ITapkhqQKlU94pM2r-146" value="-codigoPostal: Integer" style="text;align=left;verticalAlign=top;spacingLeft=4;spacingRight=4;overflow=hidden;rotatable=0;points=[[0,0.5],[1,0.5]];portConstraint=eastwest;rounded=0;shadow=0;html=0;" vertex="1" parent="5f6ITapkhqQKlU94pM2r-144">
          <mxGeometry y="52" width="220" height="26" as="geometry" />
        </mxCell>
        <mxCell id="5f6ITapkhqQKlU94pM2r-147" value="-ciudad: String" style="text;align=left;verticalAlign=top;spacingLeft=4;spacingRight=4;overflow=hidden;rotatable=0;points=[[0,0.5],[1,0.5]];portConstraint=eastwest;rounded=0;shadow=0;html=0;" vertex="1" parent="5f6ITapkhqQKlU94pM2r-144">
          <mxGeometry y="78" width="220" height="32" as="geometry" />
        </mxCell>
        <mxCell id="5f6ITapkhqQKlU94pM2r-148" value="-provincia: String" style="text;align=left;verticalAlign=top;spacingLeft=4;spacingRight=4;overflow=hidden;rotatable=0;points=[[0,0.5],[1,0.5]];portConstraint=eastwest;rounded=0;shadow=0;html=0;" vertex="1" parent="5f6ITapkhqQKlU94pM2r-144">
          <mxGeometry y="110" width="220" height="32" as="geometry" />
        </mxCell>
        <mxCell id="5f6ITapkhqQKlU94pM2r-149" value="-lineaDireccion: String" style="text;align=left;verticalAlign=top;spacingLeft=4;spacingRight=4;overflow=hidden;rotatable=0;points=[[0,0.5],[1,0.5]];portConstraint=eastwest;rounded=0;shadow=0;html=0;" vertex="1" parent="5f6ITapkhqQKlU94pM2r-144">
          <mxGeometry y="142" width="220" height="32" as="geometry" />
        </mxCell>
        <mxCell id="5f6ITapkhqQKlU94pM2r-150" value="-longitud: String" style="text;align=left;verticalAlign=top;spacingLeft=4;spacingRight=4;overflow=hidden;rotatable=0;points=[[0,0.5],[1,0.5]];portConstraint=eastwest;rounded=0;shadow=0;html=0;" vertex="1" parent="5f6ITapkhqQKlU94pM2r-144">
          <mxGeometry y="174" width="220" height="32" as="geometry" />
        </mxCell>
        <mxCell id="5f6ITapkhqQKlU94pM2r-157" value="-latitud: String" style="text;align=left;verticalAlign=top;spacingLeft=4;spacingRight=4;overflow=hidden;rotatable=0;points=[[0,0.5],[1,0.5]];portConstraint=eastwest;rounded=0;shadow=0;html=0;" vertex="1" parent="5f6ITapkhqQKlU94pM2r-144">
          <mxGeometry y="206" width="220" height="32" as="geometry" />
        </mxCell>
        <mxCell id="5f6ITapkhqQKlU94pM2r-154" value="" style="line;html=1;strokeWidth=1;align=left;verticalAlign=middle;spacingTop=-1;spacingLeft=3;spacingRight=3;rotatable=0;labelPosition=right;points=[];portConstraint=eastwest;" vertex="1" parent="5f6ITapkhqQKlU94pM2r-144">
          <mxGeometry y="238" width="220" height="20" as="geometry" />
        </mxCell>
        <mxCell id="5f6ITapkhqQKlU94pM2r-158" value="" style="endArrow=open;shadow=0;strokeWidth=1;rounded=0;curved=0;endFill=1;edgeStyle=elbowEdgeStyle;elbow=vertical;exitX=1;exitY=0.5;exitDx=0;exitDy=0;" edge="1" parent="WIyWlLk6GJQsqaUBKTNV-1">
          <mxGeometry x="0.5" y="41" relative="1" as="geometry">
            <mxPoint x="270" y="980" as="sourcePoint" />
            <mxPoint x="340" y="981" as="targetPoint" />
            <mxPoint x="-40" y="32" as="offset" />
          </mxGeometry>
        </mxCell>
        <mxCell id="5f6ITapkhqQKlU94pM2r-159" value="0..1" style="resizable=0;align=left;verticalAlign=bottom;labelBackgroundColor=none;fontSize=12;" connectable="0" vertex="1" parent="5f6ITapkhqQKlU94pM2r-158">
          <mxGeometry x="-1" relative="1" as="geometry">
            <mxPoint y="4" as="offset" />
          </mxGeometry>
        </mxCell>
        <mxCell id="5f6ITapkhqQKlU94pM2r-160" value="0..1" style="resizable=0;align=right;verticalAlign=bottom;labelBackgroundColor=none;fontSize=12;" connectable="0" vertex="1" parent="5f6ITapkhqQKlU94pM2r-158">
          <mxGeometry x="1" relative="1" as="geometry">
            <mxPoint x="-7" y="4" as="offset" />
          </mxGeometry>
        </mxCell>
        <mxCell id="5f6ITapkhqQKlU94pM2r-161" value="Usuario" style="swimlane;fontStyle=2;align=center;verticalAlign=top;childLayout=stackLayout;horizontal=1;startSize=26;horizontalStack=0;resizeParent=1;resizeLast=0;collapsible=1;marginBottom=0;rounded=0;shadow=0;strokeWidth=1;" vertex="1" parent="WIyWlLk6GJQsqaUBKTNV-1">
          <mxGeometry x="360" y="20" width="270" height="580" as="geometry">
            <mxRectangle x="230" y="140" width="160" height="26" as="alternateBounds" />
          </mxGeometry>
        </mxCell>
        <mxCell id="5f6ITapkhqQKlU94pM2r-162" value="-id: Long" style="text;align=left;verticalAlign=top;spacingLeft=4;spacingRight=4;overflow=hidden;rotatable=0;points=[[0,0.5],[1,0.5]];portConstraint=eastwest;" vertex="1" parent="5f6ITapkhqQKlU94pM2r-161">
          <mxGeometry y="26" width="270" height="26" as="geometry" />
        </mxCell>
        <mxCell id="5f6ITapkhqQKlU94pM2r-163" value="-username: String" style="text;align=left;verticalAlign=top;spacingLeft=4;spacingRight=4;overflow=hidden;rotatable=0;points=[[0,0.5],[1,0.5]];portConstraint=eastwest;rounded=0;shadow=0;html=0;" vertex="1" parent="5f6ITapkhqQKlU94pM2r-161">
          <mxGeometry y="52" width="270" height="26" as="geometry" />
        </mxCell>
        <mxCell id="5f6ITapkhqQKlU94pM2r-164" value="-txtDescripcion: String" style="text;align=left;verticalAlign=top;spacingLeft=4;spacingRight=4;overflow=hidden;rotatable=0;points=[[0,0.5],[1,0.5]];portConstraint=eastwest;rounded=0;shadow=0;html=0;" vertex="1" parent="5f6ITapkhqQKlU94pM2r-161">
          <mxGeometry y="78" width="270" height="32" as="geometry" />
        </mxCell>
        <mxCell id="5f6ITapkhqQKlU94pM2r-165" value="-txtDni: String" style="text;align=left;verticalAlign=top;spacingLeft=4;spacingRight=4;overflow=hidden;rotatable=0;points=[[0,0.5],[1,0.5]];portConstraint=eastwest;rounded=0;shadow=0;html=0;" vertex="1" parent="5f6ITapkhqQKlU94pM2r-161">
          <mxGeometry y="110" width="270" height="32" as="geometry" />
        </mxCell>
        <mxCell id="5f6ITapkhqQKlU94pM2r-166" value="-numTelefono: Integer" style="text;align=left;verticalAlign=top;spacingLeft=4;spacingRight=4;overflow=hidden;rotatable=0;points=[[0,0.5],[1,0.5]];portConstraint=eastwest;rounded=0;shadow=0;html=0;" vertex="1" parent="5f6ITapkhqQKlU94pM2r-161">
          <mxGeometry y="142" width="270" height="32" as="geometry" />
        </mxCell>
        <mxCell id="5f6ITapkhqQKlU94pM2r-167" value="-txtEmail: String" style="text;align=left;verticalAlign=top;spacingLeft=4;spacingRight=4;overflow=hidden;rotatable=0;points=[[0,0.5],[1,0.5]];portConstraint=eastwest;rounded=0;shadow=0;html=0;" vertex="1" parent="5f6ITapkhqQKlU94pM2r-161">
          <mxGeometry y="174" width="270" height="32" as="geometry" />
        </mxCell>
        <mxCell id="5f6ITapkhqQKlU94pM2r-178" value="-password: String" style="text;align=left;verticalAlign=top;spacingLeft=4;spacingRight=4;overflow=hidden;rotatable=0;points=[[0,0.5],[1,0.5]];portConstraint=eastwest;rounded=0;shadow=0;html=0;" vertex="1" parent="5f6ITapkhqQKlU94pM2r-161">
          <mxGeometry y="206" width="270" height="32" as="geometry" />
        </mxCell>
        <mxCell id="5f6ITapkhqQKlU94pM2r-179" value="-urlImagenUsuario: String" style="text;align=left;verticalAlign=top;spacingLeft=4;spacingRight=4;overflow=hidden;rotatable=0;points=[[0,0.5],[1,0.5]];portConstraint=eastwest;rounded=0;shadow=0;html=0;" vertex="1" parent="5f6ITapkhqQKlU94pM2r-161">
          <mxGeometry y="238" width="270" height="32" as="geometry" />
        </mxCell>
        <mxCell id="5f6ITapkhqQKlU94pM2r-214" value="-expired: boolean" style="text;align=left;verticalAlign=top;spacingLeft=4;spacingRight=4;overflow=hidden;rotatable=0;points=[[0,0.5],[1,0.5]];portConstraint=eastwest;rounded=0;shadow=0;html=0;" vertex="1" parent="5f6ITapkhqQKlU94pM2r-161">
          <mxGeometry y="270" width="270" height="32" as="geometry" />
        </mxCell>
        <mxCell id="5f6ITapkhqQKlU94pM2r-215" value="-locked: boolean" style="text;align=left;verticalAlign=top;spacingLeft=4;spacingRight=4;overflow=hidden;rotatable=0;points=[[0,0.5],[1,0.5]];portConstraint=eastwest;rounded=0;shadow=0;html=0;" vertex="1" parent="5f6ITapkhqQKlU94pM2r-161">
          <mxGeometry y="302" width="270" height="32" as="geometry" />
        </mxCell>
        <mxCell id="5f6ITapkhqQKlU94pM2r-216" value="-credentialsExpired: boolean" style="text;align=left;verticalAlign=top;spacingLeft=4;spacingRight=4;overflow=hidden;rotatable=0;points=[[0,0.5],[1,0.5]];portConstraint=eastwest;rounded=0;shadow=0;html=0;" vertex="1" parent="5f6ITapkhqQKlU94pM2r-161">
          <mxGeometry y="334" width="270" height="32" as="geometry" />
        </mxCell>
        <mxCell id="5f6ITapkhqQKlU94pM2r-217" value="-disabled: boolean" style="text;align=left;verticalAlign=top;spacingLeft=4;spacingRight=4;overflow=hidden;rotatable=0;points=[[0,0.5],[1,0.5]];portConstraint=eastwest;rounded=0;shadow=0;html=0;" vertex="1" parent="5f6ITapkhqQKlU94pM2r-161">
          <mxGeometry y="366" width="270" height="32" as="geometry" />
        </mxCell>
        <mxCell id="5f6ITapkhqQKlU94pM2r-168" value="" style="line;html=1;strokeWidth=1;align=left;verticalAlign=middle;spacingTop=-1;spacingLeft=3;spacingRight=3;rotatable=0;labelPosition=right;points=[];portConstraint=eastwest;" vertex="1" parent="5f6ITapkhqQKlU94pM2r-161">
          <mxGeometry y="398" width="270" height="20" as="geometry" />
        </mxCell>
        <mxCell id="5f6ITapkhqQKlU94pM2r-169" value="+buscarUsuariosAplicacion(UsuarioDTO, &#xa;Pageable)" style="text;align=left;verticalAlign=top;spacingLeft=4;spacingRight=4;overflow=hidden;rotatable=0;points=[[0,0.5],[1,0.5]];portConstraint=eastwest;" vertex="1" parent="5f6ITapkhqQKlU94pM2r-161">
          <mxGeometry y="418" width="270" height="32" as="geometry" />
        </mxCell>
        <mxCell id="5f6ITapkhqQKlU94pM2r-170" value="+buscarUsuarioPorUsername(String)" style="text;align=left;verticalAlign=top;spacingLeft=4;spacingRight=4;overflow=hidden;rotatable=0;points=[[0,0.5],[1,0.5]];portConstraint=eastwest;" vertex="1" parent="5f6ITapkhqQKlU94pM2r-161">
          <mxGeometry y="450" width="270" height="20" as="geometry" />
        </mxCell>
        <mxCell id="5f6ITapkhqQKlU94pM2r-171" value="+editarUsuario(UsuarioDTO)" style="text;align=left;verticalAlign=top;spacingLeft=4;spacingRight=4;overflow=hidden;rotatable=0;points=[[0,0.5],[1,0.5]];portConstraint=eastwest;" vertex="1" parent="5f6ITapkhqQKlU94pM2r-161">
          <mxGeometry y="470" width="270" height="20" as="geometry" />
        </mxCell>
        <mxCell id="5f6ITapkhqQKlU94pM2r-172" value="+convertirUsuarioAGestor(Long)" style="text;align=left;verticalAlign=top;spacingLeft=4;spacingRight=4;overflow=hidden;rotatable=0;points=[[0,0.5],[1,0.5]];portConstraint=eastwest;" vertex="1" parent="5f6ITapkhqQKlU94pM2r-161">
          <mxGeometry y="490" width="270" height="20" as="geometry" />
        </mxCell>
        <mxCell id="5f6ITapkhqQKlU94pM2r-173" value="+subirFotoPerfil(String, Authentication)" style="text;align=left;verticalAlign=top;spacingLeft=4;spacingRight=4;overflow=hidden;rotatable=0;points=[[0,0.5],[1,0.5]];portConstraint=eastwest;" vertex="1" parent="5f6ITapkhqQKlU94pM2r-161">
          <mxGeometry y="510" width="270" height="20" as="geometry" />
        </mxCell>
        <mxCell id="5f6ITapkhqQKlU94pM2r-174" value="+obtenerUsuarioLogueadoDto(Authentication)" style="text;align=left;verticalAlign=top;spacingLeft=4;spacingRight=4;overflow=hidden;rotatable=0;points=[[0,0.5],[1,0.5]];portConstraint=eastwest;" vertex="1" parent="5f6ITapkhqQKlU94pM2r-161">
          <mxGeometry y="530" width="270" height="20" as="geometry" />
        </mxCell>
        <mxCell id="5f6ITapkhqQKlU94pM2r-175" value="+obtenerUsuarioApp(Authentication)" style="text;align=left;verticalAlign=top;spacingLeft=4;spacingRight=4;overflow=hidden;rotatable=0;points=[[0,0.5],[1,0.5]];portConstraint=eastwest;" vertex="1" parent="5f6ITapkhqQKlU94pM2r-161">
          <mxGeometry y="550" width="270" height="20" as="geometry" />
        </mxCell>
        <mxCell id="5f6ITapkhqQKlU94pM2r-180" value="" style="endArrow=open;shadow=0;strokeWidth=1;rounded=0;curved=0;endFill=1;edgeStyle=elbowEdgeStyle;elbow=vertical;exitX=0.5;exitY=1;exitDx=0;exitDy=0;entryX=0.586;entryY=0.004;entryDx=0;entryDy=0;entryPerimeter=0;" edge="1" parent="WIyWlLk6GJQsqaUBKTNV-1" source="5f6ITapkhqQKlU94pM2r-161" target="zkfFHV4jXpPFQw0GAbJ--0">
          <mxGeometry x="0.5" y="41" relative="1" as="geometry">
            <mxPoint x="435" y="630" as="sourcePoint" />
            <mxPoint x="565" y="631" as="targetPoint" />
            <mxPoint x="-40" y="32" as="offset" />
            <Array as="points">
              <mxPoint x="480" y="630" />
            </Array>
          </mxGeometry>
        </mxCell>
        <mxCell id="5f6ITapkhqQKlU94pM2r-181" value="0..1" style="resizable=0;align=left;verticalAlign=bottom;labelBackgroundColor=none;fontSize=12;" connectable="0" vertex="1" parent="5f6ITapkhqQKlU94pM2r-180">
          <mxGeometry x="-1" relative="1" as="geometry">
            <mxPoint x="10" y="20" as="offset" />
          </mxGeometry>
        </mxCell>
        <mxCell id="5f6ITapkhqQKlU94pM2r-182" value="0..*" style="resizable=0;align=right;verticalAlign=bottom;labelBackgroundColor=none;fontSize=12;" connectable="0" vertex="1" parent="5f6ITapkhqQKlU94pM2r-180">
          <mxGeometry x="1" relative="1" as="geometry">
            <mxPoint x="30" y="-10" as="offset" />
          </mxGeometry>
        </mxCell>
        <mxCell id="5f6ITapkhqQKlU94pM2r-183" value="ValoracionAlojamiento" style="swimlane;fontStyle=2;align=center;verticalAlign=top;childLayout=stackLayout;horizontal=1;startSize=26;horizontalStack=0;resizeParent=1;resizeLast=0;collapsible=1;marginBottom=0;rounded=0;shadow=0;strokeWidth=1;" vertex="1" parent="WIyWlLk6GJQsqaUBKTNV-1">
          <mxGeometry x="20" y="640" width="250" height="220" as="geometry">
            <mxRectangle x="230" y="140" width="160" height="26" as="alternateBounds" />
          </mxGeometry>
        </mxCell>
        <mxCell id="5f6ITapkhqQKlU94pM2r-184" value="-id: int" style="text;align=left;verticalAlign=top;spacingLeft=4;spacingRight=4;overflow=hidden;rotatable=0;points=[[0,0.5],[1,0.5]];portConstraint=eastwest;" vertex="1" parent="5f6ITapkhqQKlU94pM2r-183">
          <mxGeometry y="26" width="250" height="26" as="geometry" />
        </mxCell>
        <mxCell id="5f6ITapkhqQKlU94pM2r-185" value="-txtMensaje: String" style="text;align=left;verticalAlign=top;spacingLeft=4;spacingRight=4;overflow=hidden;rotatable=0;points=[[0,0.5],[1,0.5]];portConstraint=eastwest;rounded=0;shadow=0;html=0;" vertex="1" parent="5f6ITapkhqQKlU94pM2r-183">
          <mxGeometry y="52" width="250" height="26" as="geometry" />
        </mxCell>
        <mxCell id="5f6ITapkhqQKlU94pM2r-186" value="-txtAsunto: String" style="text;align=left;verticalAlign=top;spacingLeft=4;spacingRight=4;overflow=hidden;rotatable=0;points=[[0,0.5],[1,0.5]];portConstraint=eastwest;rounded=0;shadow=0;html=0;" vertex="1" parent="5f6ITapkhqQKlU94pM2r-183">
          <mxGeometry y="78" width="250" height="32" as="geometry" />
        </mxCell>
        <mxCell id="5f6ITapkhqQKlU94pM2r-187" value="-puntuacion: Integer" style="text;align=left;verticalAlign=top;spacingLeft=4;spacingRight=4;overflow=hidden;rotatable=0;points=[[0,0.5],[1,0.5]];portConstraint=eastwest;rounded=0;shadow=0;html=0;" vertex="1" parent="5f6ITapkhqQKlU94pM2r-183">
          <mxGeometry y="110" width="250" height="32" as="geometry" />
        </mxCell>
        <mxCell id="5f6ITapkhqQKlU94pM2r-191" value="" style="line;html=1;strokeWidth=1;align=left;verticalAlign=middle;spacingTop=-1;spacingLeft=3;spacingRight=3;rotatable=0;labelPosition=right;points=[];portConstraint=eastwest;" vertex="1" parent="5f6ITapkhqQKlU94pM2r-183">
          <mxGeometry y="142" width="250" height="20" as="geometry" />
        </mxCell>
        <mxCell id="5f6ITapkhqQKlU94pM2r-192" value="+crearValoracion(ValoracionAlojamientoDTO, &#xa;Authenticacion)" style="text;align=left;verticalAlign=top;spacingLeft=4;spacingRight=4;overflow=hidden;rotatable=0;points=[[0,0.5],[1,0.5]];portConstraint=eastwest;" vertex="1" parent="5f6ITapkhqQKlU94pM2r-183">
          <mxGeometry y="162" width="250" height="28" as="geometry" />
        </mxCell>
        <mxCell id="5f6ITapkhqQKlU94pM2r-193" value="+toDto(ValoracionAlojamiento)" style="text;align=left;verticalAlign=top;spacingLeft=4;spacingRight=4;overflow=hidden;rotatable=0;points=[[0,0.5],[1,0.5]];portConstraint=eastwest;" vertex="1" parent="5f6ITapkhqQKlU94pM2r-183">
          <mxGeometry y="190" width="250" height="20" as="geometry" />
        </mxCell>
        <mxCell id="5f6ITapkhqQKlU94pM2r-197" value="" style="endArrow=open;shadow=0;strokeWidth=1;rounded=0;curved=0;endFill=1;edgeStyle=elbowEdgeStyle;elbow=vertical;exitX=1;exitY=0.5;exitDx=0;exitDy=0;entryX=-0.015;entryY=1.077;entryDx=0;entryDy=0;entryPerimeter=0;" edge="1" parent="WIyWlLk6GJQsqaUBKTNV-1" target="zkfFHV4jXpPFQw0GAbJ--1">
          <mxGeometry x="0.5" y="41" relative="1" as="geometry">
            <mxPoint x="270" y="730" as="sourcePoint" />
            <mxPoint x="330" y="730" as="targetPoint" />
            <mxPoint x="-40" y="32" as="offset" />
          </mxGeometry>
        </mxCell>
        <mxCell id="5f6ITapkhqQKlU94pM2r-198" value="0..*" style="resizable=0;align=left;verticalAlign=bottom;labelBackgroundColor=none;fontSize=12;" connectable="0" vertex="1" parent="5f6ITapkhqQKlU94pM2r-197">
          <mxGeometry x="-1" relative="1" as="geometry">
            <mxPoint y="4" as="offset" />
          </mxGeometry>
        </mxCell>
        <mxCell id="5f6ITapkhqQKlU94pM2r-199" value="0..1" style="resizable=0;align=right;verticalAlign=bottom;labelBackgroundColor=none;fontSize=12;" connectable="0" vertex="1" parent="5f6ITapkhqQKlU94pM2r-197">
          <mxGeometry x="1" relative="1" as="geometry">
            <mxPoint x="-7" y="4" as="offset" />
          </mxGeometry>
        </mxCell>
        <mxCell id="5f6ITapkhqQKlU94pM2r-200" value="" style="endArrow=open;shadow=0;strokeWidth=1;rounded=0;curved=0;endFill=1;edgeStyle=elbowEdgeStyle;elbow=vertical;exitX=0.5;exitY=0;exitDx=0;exitDy=0;" edge="1" parent="WIyWlLk6GJQsqaUBKTNV-1" source="5f6ITapkhqQKlU94pM2r-183">
          <mxGeometry x="0.5" y="41" relative="1" as="geometry">
            <mxPoint x="160" y="420" as="sourcePoint" />
            <mxPoint x="360" y="421" as="targetPoint" />
            <mxPoint x="-40" y="32" as="offset" />
            <Array as="points">
              <mxPoint x="280" y="421" />
            </Array>
          </mxGeometry>
        </mxCell>
        <mxCell id="5f6ITapkhqQKlU94pM2r-201" value="0..*" style="resizable=0;align=left;verticalAlign=bottom;labelBackgroundColor=none;fontSize=12;" connectable="0" vertex="1" parent="5f6ITapkhqQKlU94pM2r-200">
          <mxGeometry x="-1" relative="1" as="geometry">
            <mxPoint x="10" y="-10" as="offset" />
          </mxGeometry>
        </mxCell>
        <mxCell id="5f6ITapkhqQKlU94pM2r-202" value="0..1" style="resizable=0;align=right;verticalAlign=bottom;labelBackgroundColor=none;fontSize=12;" connectable="0" vertex="1" parent="5f6ITapkhqQKlU94pM2r-200">
          <mxGeometry x="1" relative="1" as="geometry">
            <mxPoint x="-20" y="19" as="offset" />
          </mxGeometry>
        </mxCell>
        <mxCell id="5f6ITapkhqQKlU94pM2r-204" value="" style="endArrow=open;shadow=0;strokeWidth=1;rounded=0;curved=0;endFill=1;edgeStyle=elbowEdgeStyle;elbow=vertical;entryX=-0.002;entryY=0.877;entryDx=0;entryDy=0;entryPerimeter=0;" edge="1" parent="WIyWlLk6GJQsqaUBKTNV-1">
          <mxGeometry x="0.5" y="41" relative="1" as="geometry">
            <mxPoint x="630" y="221" as="sourcePoint" />
            <mxPoint x="740" y="221" as="targetPoint" />
            <mxPoint x="-40" y="32" as="offset" />
          </mxGeometry>
        </mxCell>
        <mxCell id="5f6ITapkhqQKlU94pM2r-205" value="0..*" style="resizable=0;align=left;verticalAlign=bottom;labelBackgroundColor=none;fontSize=12;" connectable="0" vertex="1" parent="5f6ITapkhqQKlU94pM2r-204">
          <mxGeometry x="-1" relative="1" as="geometry">
            <mxPoint y="4" as="offset" />
          </mxGeometry>
        </mxCell>
        <mxCell id="5f6ITapkhqQKlU94pM2r-206" value="0..*" style="resizable=0;align=right;verticalAlign=bottom;labelBackgroundColor=none;fontSize=12;" connectable="0" vertex="1" parent="5f6ITapkhqQKlU94pM2r-204">
          <mxGeometry x="1" relative="1" as="geometry">
            <mxPoint x="-7" y="4" as="offset" />
          </mxGeometry>
        </mxCell>
        <mxCell id="5f6ITapkhqQKlU94pM2r-208" value="" style="endArrow=open;shadow=0;strokeWidth=1;rounded=0;curved=0;endFill=1;edgeStyle=elbowEdgeStyle;elbow=vertical;entryX=-0.002;entryY=0.877;entryDx=0;entryDy=0;entryPerimeter=0;" edge="1" parent="WIyWlLk6GJQsqaUBKTNV-1">
          <mxGeometry x="0.5" y="41" relative="1" as="geometry">
            <mxPoint x="630" y="521" as="sourcePoint" />
            <mxPoint x="740" y="521" as="targetPoint" />
            <mxPoint x="-40" y="32" as="offset" />
            <Array as="points" />
          </mxGeometry>
        </mxCell>
        <mxCell id="5f6ITapkhqQKlU94pM2r-209" value="0..1" style="resizable=0;align=left;verticalAlign=bottom;labelBackgroundColor=none;fontSize=12;" connectable="0" vertex="1" parent="5f6ITapkhqQKlU94pM2r-208">
          <mxGeometry x="-1" relative="1" as="geometry">
            <mxPoint y="4" as="offset" />
          </mxGeometry>
        </mxCell>
        <mxCell id="5f6ITapkhqQKlU94pM2r-210" value="0..*" style="resizable=0;align=right;verticalAlign=bottom;labelBackgroundColor=none;fontSize=12;" connectable="0" vertex="1" parent="5f6ITapkhqQKlU94pM2r-208">
          <mxGeometry x="1" relative="1" as="geometry">
            <mxPoint x="-7" y="4" as="offset" />
          </mxGeometry>
        </mxCell>
        <mxCell id="5f6ITapkhqQKlU94pM2r-211" value="" style="endArrow=open;shadow=0;strokeWidth=1;rounded=0;curved=0;endFill=1;edgeStyle=elbowEdgeStyle;elbow=vertical;exitX=1;exitY=0.5;exitDx=0;exitDy=0;" edge="1" parent="WIyWlLk6GJQsqaUBKTNV-1">
          <mxGeometry x="0.5" y="41" relative="1" as="geometry">
            <mxPoint x="270" y="249.5" as="sourcePoint" />
            <mxPoint x="360" y="250" as="targetPoint" />
            <mxPoint x="-40" y="32" as="offset" />
          </mxGeometry>
        </mxCell>
        <mxCell id="5f6ITapkhqQKlU94pM2r-212" value="0..1" style="resizable=0;align=left;verticalAlign=bottom;labelBackgroundColor=none;fontSize=12;" connectable="0" vertex="1" parent="5f6ITapkhqQKlU94pM2r-211">
          <mxGeometry x="-1" relative="1" as="geometry">
            <mxPoint y="4" as="offset" />
          </mxGeometry>
        </mxCell>
        <mxCell id="5f6ITapkhqQKlU94pM2r-213" value="0..1" style="resizable=0;align=right;verticalAlign=bottom;labelBackgroundColor=none;fontSize=12;" connectable="0" vertex="1" parent="5f6ITapkhqQKlU94pM2r-211">
          <mxGeometry x="1" relative="1" as="geometry">
            <mxPoint x="-20" y="4" as="offset" />
          </mxGeometry>
        </mxCell>
      </root>
    </mxGraphModel>
  </diagram>
</mxfile>
